<svg width="24" height="25" viewBox="0 0 24 25" fill="none" xmlns="http://www.w3.org/2000/svg">
<path d="M16.5 6.74121H13.5C12.9477 6.74121 12.5 7.18893 12.5 7.74121V10.7412H16.5C16.6137 10.7387 16.7216 10.7916 16.7892 10.8831C16.8568 10.9746 16.8758 11.0932 16.84 11.2012L16.1 13.4012C16.0318 13.6031 15.8431 13.7396 15.63 13.7412H12.5V21.2412C12.5 21.5173 12.2761 21.7412 12 21.7412H9.5C9.22386 21.7412 9 21.5173 9 21.2412V13.7412H7.5C7.22386 13.7412 7 13.5173 7 13.2412V11.2412C7 10.9651 7.22386 10.7412 7.5 10.7412H9V7.74121C9 5.53207 10.7909 3.74121 13 3.74121H16.5C16.7761 3.74121 17 3.96507 17 4.24121V6.24121C17 6.51735 16.7761 6.74121 16.5 6.74121Z" fill="black"/>
</svg>
