<svg width="417" height="31" viewBox="0 0 417 31" fill="none" xmlns="http://www.w3.org/2000/svg">
<path d="M22.4191 14.1125C22.0401 14.4938 21.7499 14.954 21.569 15.4602C21.3882 15.9665 21.3213 16.5064 21.373 17.0415L21.355 17.0235C21.4082 17.6534 21.3232 18.2872 21.1061 18.8809C20.889 19.4745 20.5451 20.0136 20.0982 20.4606C19.6512 20.9075 19.112 21.2516 18.5183 21.4686C17.9247 21.6857 17.2908 21.7707 16.661 21.7175L16.6791 21.7355C15.9257 21.6654 15.1689 21.8293 14.512 22.205C13.8552 22.5807 13.3302 23.1498 13.0087 23.8348C12.6872 24.5198 12.5847 25.2872 12.7153 26.0326C12.846 26.7779 13.2033 27.4648 13.7386 27.9996C14.2739 28.5344 14.9611 28.8911 15.7065 29.021C16.452 29.151 17.2193 29.0478 17.904 28.7257C18.5887 28.4035 19.1573 27.8781 19.5324 27.2209C19.9075 26.5637 20.0708 25.8069 20 25.0535L20.019 25.0715C19.9658 24.4417 20.0507 23.8078 20.2678 23.2141C20.4849 22.6205 20.829 22.0814 21.2759 21.6344C21.7229 21.1875 22.262 20.8434 22.8556 20.6264C23.4494 20.4093 24.0831 20.3243 24.713 20.3775L24.694 20.3595C25.3095 20.4148 25.929 20.3139 26.4951 20.0661C27.0611 19.8183 27.5554 19.4316 27.9322 18.9419C28.309 18.4522 28.5562 17.8752 28.6507 17.2646C28.7451 16.6539 28.684 16.0293 28.4727 15.4485C28.2615 14.8678 27.9071 14.3498 27.4424 13.9425C26.9777 13.5352 26.4178 13.2518 25.8144 13.1186C25.2109 12.9854 24.5837 13.0066 23.9907 13.1803C23.3976 13.3541 22.8582 13.6747 22.4221 14.1125H22.4191Z" fill="black"/>
<path d="M15.042 19.3775L15.023 19.3595C15.5583 19.4134 16.0989 19.3477 16.6058 19.1671C17.1126 18.9865 17.573 18.6955 17.9536 18.3153C18.3341 17.935 18.6255 17.4748 18.8064 16.9681C18.9874 16.4614 19.0535 15.9209 19 15.3855L19.019 15.4035C18.9658 14.7736 19.0508 14.1398 19.2678 13.5461C19.4849 12.9525 19.829 12.4134 20.2759 11.9664C20.7229 11.5195 21.262 11.1754 21.8556 10.9584C22.4493 10.7412 23.0831 10.6563 23.713 10.7095L23.694 10.6915C24.4475 10.7623 25.2044 10.5988 25.8616 10.2236C26.5189 9.84829 27.0443 9.27942 27.3663 8.59455C27.6883 7.90969 27.7912 7.14216 27.661 6.39665C27.5308 5.65114 27.1738 4.96396 26.6386 4.42882C26.1035 3.89369 25.4163 3.53665 24.6708 3.40643C23.9253 3.2762 23.1578 3.37911 22.4729 3.70113C21.788 4.02314 21.2192 4.54859 20.8439 5.2058C20.4686 5.863 20.3052 6.61997 20.376 7.37345L20.358 7.35445C20.4113 7.98434 20.3265 8.61828 20.1095 9.212C19.8925 9.80572 19.5484 10.3449 19.1015 10.792C18.6545 11.2389 18.1153 11.583 17.5216 11.8C16.9278 12.017 16.2939 12.1018 15.664 12.0485L15.682 12.0675C15.1467 12.0136 14.606 12.0793 14.0992 12.2599C13.5924 12.4404 13.132 12.7314 12.7514 13.1117C12.3708 13.492 12.0795 13.9522 11.8985 14.4589C11.7176 14.9656 11.6515 15.5061 11.705 16.0415L11.687 16.0235C11.74 16.6533 11.6549 17.2871 11.4378 17.8807C11.2206 18.4742 10.8766 19.0133 10.4297 19.4602C9.98279 19.9071 9.44375 20.2511 8.85019 20.4683C8.25663 20.6854 7.62284 20.7705 6.99303 20.7175L7.01103 20.7355C6.25755 20.6646 5.50058 20.8281 4.84337 21.2034C4.18617 21.5787 3.66072 22.1475 3.33871 22.8324C3.01669 23.5173 2.91377 24.2847 3.044 25.0303C3.17423 25.7758 3.53127 26.463 4.0664 26.9981C4.60154 27.5333 5.28872 27.8903 6.03423 28.0205C6.77974 28.1507 7.54727 28.0478 8.23214 27.7258C8.917 27.4038 9.48587 26.8784 9.86113 26.2212C10.2364 25.5639 10.3998 24.807 10.329 24.0535L10.348 24.0715C10.2948 23.4416 10.3798 22.8078 10.5969 22.2141C10.8139 21.6205 11.158 21.0814 11.6049 20.6344C12.0519 20.1875 12.591 19.8433 13.1846 19.6264C13.7783 19.4093 14.4121 19.3243 15.042 19.3775Z" fill="#006B6A"/>
<path d="M8.33997 17.3701C8.71899 16.9889 9.00917 16.5287 9.18981 16.0224C9.37045 15.5161 9.43709 14.9761 9.38497 14.4411L9.40396 14.4592C9.35076 13.8292 9.43572 13.195 9.65293 12.6012C9.87014 12.0075 10.2144 11.4682 10.6616 11.0212C11.1088 10.5743 11.6481 10.2303 12.242 10.0133C12.8359 9.79637 13.47 9.71167 14.1 9.76515L14.081 9.74715C14.8342 9.81772 15.5909 9.65423 16.2478 9.27899C16.9047 8.90376 17.4298 8.33503 17.7517 7.65038C18.0735 6.96572 18.1763 6.19847 18.0461 5.45324C17.9159 4.70801 17.5589 4.02109 17.024 3.48615C16.4891 2.95121 15.8021 2.59429 15.0569 2.46407C14.3117 2.33384 13.5444 2.43666 12.8598 2.75848C12.1751 3.0803 11.6064 3.60547 11.2312 4.26237C10.8559 4.91927 10.6924 5.67593 10.763 6.42915L10.745 6.41115C10.7982 7.041 10.7132 7.67487 10.4961 8.26851C10.279 8.86215 9.93499 9.40126 9.48803 9.84822C9.04108 10.2952 8.50196 10.6392 7.90832 10.8562C7.31468 11.0733 6.68082 11.1583 6.05097 11.1052L6.06897 11.1231C5.45354 11.068 4.83413 11.1691 4.26815 11.417C3.70217 11.6649 3.20792 12.0516 2.83121 12.5414C2.4545 13.0311 2.20752 13.6082 2.11314 14.2188C2.01877 14.8294 2.08006 15.4541 2.29133 16.0346C2.5026 16.6153 2.85703 17.1332 3.32176 17.5404C3.78649 17.9477 4.34649 18.2311 4.94987 18.3643C5.55324 18.4974 6.18047 18.476 6.77344 18.3023C7.3664 18.1285 7.9059 17.808 8.34196 17.3701H8.33997Z" fill="black"/>
<path d="M39.317 7.396H42.287V21.849H39.317V7.396Z" fill="black"/>
<path d="M43.969 16.9003C43.9649 15.8617 44.2691 14.8451 44.8431 13.9795C45.4171 13.1139 46.2351 12.4381 47.1935 12.0378C48.1519 11.6374 49.2075 11.5305 50.2267 11.7306C51.2459 11.9307 52.1828 12.4287 52.9187 13.1617C53.6546 13.8946 54.1564 14.8295 54.3606 15.8479C54.5648 16.8663 54.4621 17.9224 54.0656 18.8824C53.6691 19.8423 52.9966 20.6631 52.1333 21.2405C51.2699 21.818 50.2547 22.1263 49.216 22.1263C48.5266 22.1342 47.8425 22.0045 47.2037 21.7449C46.5649 21.4853 45.9843 21.101 45.4958 20.6145C45.0072 20.1279 44.6206 19.5488 44.3585 18.9111C44.0963 18.2734 43.9639 17.5898 43.969 16.9003ZM51.493 16.9003C51.4806 16.4526 51.3365 16.0185 51.0788 15.6522C50.821 15.286 50.461 15.0038 50.0438 14.8411C49.6265 14.6783 49.1706 14.6421 48.7329 14.7371C48.2952 14.8321 47.8952 15.0539 47.5829 15.375C47.2707 15.696 47.0599 16.102 46.9772 16.5422C46.8944 16.9823 46.9431 17.4371 47.1174 17.8497C47.2917 18.2623 47.5837 18.6143 47.9569 18.8618C48.3302 19.1093 48.7682 19.2413 49.216 19.2413C49.5227 19.2495 49.8278 19.194 50.1121 19.0784C50.3963 18.9628 50.6535 18.7896 50.8674 18.5697C51.0813 18.3497 51.2474 18.0878 51.355 17.8005C51.4627 17.5132 51.5097 17.2067 51.493 16.9003Z" fill="black"/>
<path d="M66.3 11.95V21.35C66.3 24.676 63.706 26.082 61.073 26.082C60.146 26.1514 59.2177 25.9641 58.39 25.5408C57.5624 25.1174 56.8673 24.4743 56.381 23.682L58.915 22.217C59.1194 22.63 59.4451 22.9707 59.8484 23.1936C60.2518 23.4164 60.7136 23.5108 61.172 23.464C61.465 23.5046 61.7634 23.4788 62.0451 23.3885C62.3267 23.2982 62.5845 23.1457 62.7993 22.9424C63.0141 22.739 63.1804 22.49 63.286 22.2136C63.3915 21.9373 63.4335 21.6408 63.409 21.346V20.441C63.0612 20.8665 62.6186 21.2046 62.1165 21.4281C61.6144 21.6516 61.067 21.7543 60.518 21.728C59.2118 21.6868 57.9729 21.139 57.0635 20.2004C56.1541 19.2619 55.6456 18.0063 55.6456 16.6995C55.6456 15.3927 56.1541 14.1371 57.0635 13.1986C57.9729 12.26 59.2118 11.7122 60.518 11.671C61.067 11.6447 61.6144 11.7474 62.1165 11.9709C62.6186 12.1944 63.0612 12.5325 63.409 12.958V11.948L66.3 11.95ZM63.41 16.701C63.43 16.2224 63.3062 15.7487 63.0547 15.341C62.8032 14.9332 62.4354 14.6101 61.9987 14.4132C61.562 14.2162 61.0764 14.1545 60.6043 14.2359C60.1322 14.3173 59.6953 14.5381 59.3497 14.87C59.0042 15.2018 58.7659 15.6294 58.6654 16.0978C58.565 16.5662 58.607 17.054 58.7862 17.4983C58.9653 17.9426 59.2733 18.3232 59.6705 18.591C60.0677 18.8588 60.536 19.0016 61.015 19.001C61.3271 19.0228 61.6402 18.979 61.9343 18.8724C62.2284 18.7658 62.4969 18.5987 62.7225 18.3821C62.9481 18.1654 63.1259 17.9039 63.2443 17.6143C63.3627 17.3248 63.4192 17.0137 63.41 16.701Z" fill="black"/>
<path d="M67.982 16.9003C67.9779 15.8617 68.282 14.8451 68.8561 13.9795C69.4301 13.1139 70.248 12.4381 71.2064 12.0378C72.1648 11.6374 73.2205 11.5305 74.2397 11.7306C75.2589 11.9307 76.1958 12.4287 76.9317 13.1617C77.6676 13.8946 78.1693 14.8295 78.3735 15.8479C78.5777 16.8663 78.475 17.9224 78.0785 18.8824C77.682 19.8423 77.0096 20.6631 76.1463 21.2405C75.2829 21.818 74.2676 22.1263 73.2289 22.1263C72.5395 22.1342 71.8553 22.0045 71.2166 21.7449C70.5778 21.4853 69.9972 21.101 69.5087 20.6145C69.0201 20.1279 68.6335 19.5488 68.3714 18.9111C68.1092 18.2734 67.9769 17.5898 67.982 16.9003ZM75.5059 16.9003C75.4935 16.4526 75.3494 16.0185 75.0917 15.6522C74.8339 15.286 74.474 15.0038 74.0568 14.8411C73.6395 14.6783 73.1835 14.6421 72.7459 14.7371C72.3082 14.8321 71.9082 15.0539 71.5959 15.375C71.2837 15.696 71.0728 16.102 70.99 16.5422C70.9072 16.9823 70.9561 17.4371 71.1304 17.8497C71.3047 18.2623 71.5967 18.6143 71.9699 18.8618C72.3432 19.1093 72.781 19.2413 73.2289 19.2413C73.5356 19.2495 73.8408 19.194 74.125 19.0784C74.4093 18.9628 74.6665 18.7896 74.8804 18.5697C75.0943 18.3497 75.2603 18.0878 75.3679 17.8005C75.4756 17.5132 75.5226 17.2067 75.5059 16.9003Z" fill="black"/>
<path d="M79.861 9.29714C79.861 8.94469 79.9655 8.60016 80.1613 8.30712C80.3571 8.01407 80.6355 7.78566 80.9611 7.65079C81.2867 7.51591 81.645 7.48062 81.9907 7.54938C82.3363 7.61814 82.6539 7.78786 82.9031 8.03708C83.1523 8.28629 83.322 8.60381 83.3908 8.94949C83.4595 9.29516 83.4242 9.65346 83.2894 9.97908C83.1545 10.3047 82.9261 10.583 82.633 10.7788C82.34 10.9746 81.9955 11.0791 81.643 11.0791C81.1719 11.0744 80.7213 10.8852 80.3881 10.552C80.055 10.2188 79.8657 9.7683 79.861 9.29714ZM80.161 11.9501H83.132V21.8501H80.157L80.161 11.9501Z" fill="black"/>
<path d="M95.9561 16.9C95.9904 17.5543 95.8951 18.2089 95.6755 18.8262C95.456 19.4435 95.1166 20.0113 94.6768 20.497C94.2371 20.9826 93.7056 21.3766 93.1131 21.6562C92.5205 21.9357 91.8786 22.0954 91.2241 22.126C90.6737 22.156 90.1236 22.0632 89.6135 21.8543C89.1034 21.6453 88.6463 21.3255 88.2751 20.918V25.809H85.3051V11.95H88.2751V12.88C88.6464 12.4728 89.1037 12.1532 89.6137 11.9445C90.1238 11.7357 90.6738 11.643 91.2241 11.673C91.8787 11.7035 92.5208 11.8631 93.1135 12.1427C93.7062 12.4223 94.2377 12.8163 94.6775 13.3021C95.1173 13.7879 95.4567 14.3559 95.6761 14.9734C95.8955 15.5908 95.9907 16.2456 95.9561 16.9ZM92.9861 16.9C92.9745 16.4367 92.8265 15.9871 92.5606 15.6074C92.2947 15.2278 91.9228 14.935 91.4914 14.7658C91.0599 14.5965 90.5881 14.5582 90.135 14.6558C89.6819 14.7533 89.2677 14.9823 88.9441 15.3141C88.6205 15.646 88.402 16.0658 88.3159 16.5213C88.2298 16.9767 88.2799 17.4473 88.46 17.8744C88.64 18.3015 88.9421 18.6659 89.3283 18.9222C89.7145 19.1784 90.1676 19.3151 90.6311 19.315C90.9493 19.3292 91.2669 19.2759 91.5631 19.1587C91.8592 19.0416 92.1273 18.8631 92.3496 18.6351C92.572 18.407 92.7436 18.1346 92.8533 17.8356C92.963 17.5366 93.0083 17.2177 92.9861 16.9Z" fill="black"/>
<path d="M105.121 18.8791C105.121 21.1561 103.142 22.1261 101.004 22.1261C100.14 22.2043 99.2726 22.0217 98.5137 21.6016C97.7548 21.1816 97.1394 20.5436 96.7469 19.7701L99.3199 18.3051C99.424 18.6626 99.6476 18.9737 99.9533 19.1862C100.259 19.3988 100.629 19.5001 101 19.4731C101.712 19.4731 102.069 19.2551 102.069 18.8601C102.069 17.7701 97.1979 18.3451 97.1979 14.9201C97.1979 12.7611 99.0199 11.6731 101.079 11.6731C101.853 11.6486 102.619 11.8322 103.298 12.2047C103.977 12.5773 104.544 13.1251 104.939 13.7911L102.405 15.1571C102.294 14.8978 102.109 14.6769 101.873 14.522C101.637 14.3671 101.361 14.2851 101.079 14.2861C100.564 14.2861 100.247 14.4861 100.247 14.8401C100.251 15.9691 105.121 15.2161 105.121 18.8791Z" fill="black"/>
<path d="M115.97 11.9502V21.8502H113V20.9192C112.657 21.33 112.222 21.6537 111.73 21.8637C111.238 22.0737 110.704 22.164 110.17 22.1272C108.17 22.1272 106.47 20.7022 106.47 18.0272V11.9502H109.44V17.5922C109.415 17.828 109.442 18.0664 109.519 18.2907C109.595 18.5151 109.72 18.7201 109.884 18.8914C110.048 19.0627 110.247 19.1962 110.468 19.2827C110.688 19.3692 110.925 19.4066 111.162 19.3922C112.251 19.3922 113.003 18.7592 113.003 17.3532V11.9532L115.97 11.9502Z" fill="black"/>
<path d="M133 15.7714V21.8494H130.03V16.0284C130.03 15.0384 129.555 14.4054 128.605 14.4054C127.615 14.4054 127.06 15.0984 127.06 16.2664V21.8494H124.091V16.0284C124.091 15.0384 123.616 14.4054 122.665 14.4054C121.675 14.4054 121.121 15.0984 121.121 16.2664V21.8494H118.151V11.9494H121.121V12.8594C121.429 12.4557 121.833 12.1355 122.296 11.9282C122.76 11.7208 123.268 11.6329 123.774 11.6724C124.282 11.6475 124.788 11.7548 125.243 11.9837C125.697 12.2125 126.084 12.5553 126.367 12.9784C126.696 12.5357 127.132 12.1837 127.634 11.9553C128.136 11.7269 128.688 11.6296 129.238 11.6724C131.511 11.6734 133 13.2964 133 15.7714Z" fill="black"/>
<path d="M135.512 11.8894C136.729 11.8894 137.716 10.9026 137.716 9.68545C137.716 8.46821 136.729 7.48145 135.512 7.48145C134.295 7.48145 133.308 8.46821 133.308 9.68545C133.308 10.9026 134.295 11.8894 135.512 11.8894Z" fill="black"/>
</svg>
