<svg width="24" height="25" viewBox="0 0 24 25" fill="none" xmlns="http://www.w3.org/2000/svg">
<path fill-rule="evenodd" clip-rule="evenodd" d="M16 3.74121H8C5.23858 3.74121 3 5.97979 3 8.74121V16.7412C3 19.5026 5.23858 21.7412 8 21.7412H16C18.7614 21.7412 21 19.5026 21 16.7412V8.74121C21 5.97979 18.7614 3.74121 16 3.74121ZM19.25 16.7412C19.2445 18.5338 17.7926 19.9857 16 19.9912H8C6.20735 19.9857 4.75549 18.5338 4.75 16.7412V8.74121C4.75549 6.94856 6.20735 5.4967 8 5.49121H16C17.7926 5.4967 19.2445 6.94856 19.25 8.74121V16.7412ZM16.75 8.99121C17.3023 8.99121 17.75 8.54349 17.75 7.99121C17.75 7.43893 17.3023 6.99121 16.75 6.99121C16.1977 6.99121 15.75 7.43893 15.75 7.99121C15.75 8.54349 16.1977 8.99121 16.75 8.99121ZM12 8.24121C9.51472 8.24121 7.5 10.2559 7.5 12.7412C7.5 15.2265 9.51472 17.2412 12 17.2412C14.4853 17.2412 16.5 15.2265 16.5 12.7412C16.5027 11.5469 16.0294 10.4008 15.1849 9.55629C14.3404 8.7118 13.1943 8.23855 12 8.24121ZM9.25 12.7412C9.25 14.26 10.4812 15.4912 12 15.4912C13.5188 15.4912 14.75 14.26 14.75 12.7412C14.75 11.2224 13.5188 9.99121 12 9.99121C10.4812 9.99121 9.25 11.2224 9.25 12.7412Z" fill="black"/>
</svg>
