<svg width="24" height="25" viewBox="0 0 24 25" fill="none" xmlns="http://www.w3.org/2000/svg">
<path fill-rule="evenodd" clip-rule="evenodd" d="M5 3.74121H19C20.1046 3.74121 21 4.63664 21 5.74121V19.7412C21 20.8458 20.1046 21.7412 19 21.7412H5C3.89543 21.7412 3 20.8458 3 19.7412V5.74121C3 4.63664 3.89543 3.74121 5 3.74121ZM8 18.7412C8.27614 18.7412 8.5 18.5173 8.5 18.2412V11.2412C8.5 10.9651 8.27614 10.7412 8 10.7412H6.5C6.22386 10.7412 6 10.9651 6 11.2412V18.2412C6 18.5173 6.22386 18.7412 6.5 18.7412H8ZM7.25 9.74121C6.42157 9.74121 5.75 9.06964 5.75 8.24121C5.75 7.41278 6.42157 6.74121 7.25 6.74121C8.07843 6.74121 8.75 7.41278 8.75 8.24121C8.75 9.06964 8.07843 9.74121 7.25 9.74121ZM17.5 18.7412C17.7761 18.7412 18 18.5173 18 18.2412V13.6412C18.0325 12.052 16.8576 10.6957 15.28 10.5012C14.177 10.4005 13.1083 10.9156 12.5 11.8412V11.2412C12.5 10.9651 12.2761 10.7412 12 10.7412H10.5C10.2239 10.7412 10 10.9651 10 11.2412V18.2412C10 18.5173 10.2239 18.7412 10.5 18.7412H12C12.2761 18.7412 12.5 18.5173 12.5 18.2412V14.4912C12.5 13.6628 13.1716 12.9912 14 12.9912C14.8284 12.9912 15.5 13.6628 15.5 14.4912V18.2412C15.5 18.5173 15.7239 18.7412 16 18.7412H17.5Z" fill="black"/>
</svg>
