<svg width="24" height="25" viewBox="0 0 24 25" fill="none" xmlns="http://www.w3.org/2000/svg">
<path d="M20.9727 7.45861C20.5083 8.07813 19.9469 8.61854 19.3102 9.05897C19.3102 9.2208 19.3102 9.38263 19.3102 9.55346C19.3153 12.4923 18.1414 15.3103 16.0517 17.3757C13.9619 19.4411 11.1311 20.5811 8.19393 20.5401C6.49587 20.5458 4.81955 20.1581 3.2963 19.4073C3.21416 19.3714 3.16119 19.2902 3.1615 19.2005V19.1016C3.1615 18.9725 3.26611 18.8679 3.39515 18.8679C5.0643 18.8128 6.6739 18.2341 7.99622 17.2136C6.48541 17.1831 5.12607 16.2881 4.50048 14.9119C4.46889 14.8368 4.47872 14.7505 4.52645 14.6844C4.57417 14.6183 4.65288 14.5819 4.73413 14.5883C5.1933 14.6344 5.65706 14.5917 6.10008 14.4624C4.43227 14.1162 3.17909 12.7316 2.99974 11.0369C2.99337 10.9556 3.0298 10.8769 3.09588 10.8291C3.16195 10.7814 3.24812 10.7715 3.32326 10.8032C3.77082 11.0007 4.25397 11.1047 4.74312 11.1088C3.28172 10.1497 2.65049 8.32526 3.20643 6.66743C3.26382 6.50634 3.40169 6.38733 3.56938 6.35415C3.73706 6.32096 3.90984 6.37849 4.0242 6.5056C5.99627 8.60446 8.70592 9.85517 11.5818 9.994C11.5082 9.70006 11.472 9.39797 11.474 9.09493C11.5009 7.50593 12.4841 6.09042 13.9633 5.51108C15.4424 4.93175 17.1248 5.30324 18.2229 6.45165C18.9713 6.30906 19.6949 6.05766 20.3706 5.70542C20.4201 5.67452 20.4829 5.67452 20.5324 5.70542C20.5633 5.75494 20.5633 5.81773 20.5324 5.86725C20.2051 6.61673 19.6522 7.24533 18.9508 7.6654C19.565 7.59417 20.1684 7.44928 20.7481 7.23385C20.7969 7.20063 20.861 7.20063 20.9098 7.23385C20.9507 7.25255 20.9813 7.28832 20.9934 7.33163C21.0055 7.37494 20.9979 7.42139 20.9727 7.45861Z" fill="black"/>
</svg>
