<svg width="20" height="20" viewBox="0 0 20 20" fill="none" xmlns="http://www.w3.org/2000/svg">
<path d="M9.07076 1.46439C9.4145 0.647935 10.5853 0.647936 10.929 1.4644L12.9578 6.28328C13.1028 6.62748 13.4304 6.86266 13.8065 6.89245L19.0725 7.30953C19.9648 7.3802 20.3265 8.48018 19.6468 9.05545L15.6347 12.4507C15.3481 12.6933 15.2229 13.0738 15.3104 13.4364L16.5362 18.5131C16.7439 19.3732 15.7968 20.0531 15.0329 19.5922L10.5244 16.8716C10.2024 16.6773 9.79738 16.6773 9.47536 16.8716L4.96687 19.5922C4.20299 20.0531 3.25583 19.3732 3.46351 18.5131L4.6893 13.4364C4.77686 13.0738 4.6517 12.6933 4.36513 12.4507L0.35294 9.05545C-0.32684 8.48018 0.0349458 7.3802 0.927169 7.30953L6.19323 6.89245C6.56938 6.86266 6.89703 6.62748 7.04194 6.28328L9.07076 1.46439Z" fill="#006B6A"/>
</svg>
