<svg width="20" height="20" viewBox="0 0 20 20" fill="none" xmlns="http://www.w3.org/2000/svg">
<path d="M9.07063 1.46439C9.41438 0.647935 10.5851 0.647936 10.9289 1.4644L12.9576 6.28328C13.1026 6.62748 13.4303 6.86266 13.8064 6.89245L19.0724 7.30953C19.9646 7.3802 20.3264 8.48018 19.6466 9.05545L15.6345 12.4507C15.348 12.6933 15.2228 13.0738 15.3103 13.4364L16.5361 18.5131C16.7438 19.3732 15.7966 20.0531 15.0328 19.5922L10.5243 16.8716C10.2023 16.6773 9.79726 16.6773 9.47523 16.8716L4.96674 19.5922C4.20287 20.0531 3.25571 19.3732 3.46339 18.5131L4.68918 13.4364C4.77673 13.0738 4.65158 12.6933 4.36501 12.4507L0.352818 9.05545C-0.326962 8.48018 0.0348237 7.3802 0.927047 7.30953L6.19311 6.89245C6.56926 6.86266 6.89691 6.62748 7.04182 6.28328L9.07063 1.46439Z" fill="#006B6A"/>
</svg>
