<svg width="20" height="20" viewBox="0 0 20 20" fill="none" xmlns="http://www.w3.org/2000/svg">
<path d="M9.07088 1.46439C9.41462 0.647935 10.5854 0.647936 10.9291 1.4644L12.9579 6.28328C13.1029 6.62748 13.4306 6.86266 13.8067 6.89245L19.0727 7.30953C19.9649 7.3802 20.3267 8.48018 19.6469 9.05545L15.6348 12.4507C15.3482 12.6933 15.223 13.0738 15.3106 13.4364L16.5363 18.5131C16.744 19.3732 15.7969 20.0531 15.033 19.5922L10.5245 16.8716C10.2025 16.6773 9.7975 16.6773 9.47548 16.8716L4.96699 19.5922C4.20311 20.0531 3.25596 19.3732 3.46363 18.5131L4.68942 13.4364C4.77698 13.0738 4.65182 12.6933 4.36526 12.4507L0.353062 9.05545C-0.326718 8.48018 0.0350679 7.3802 0.927291 7.30953L6.19336 6.89245C6.5695 6.86266 6.89716 6.62748 7.04207 6.28328L9.07088 1.46439Z" fill="#006B6A"/>
</svg>
